<?xml version="1.0" encoding="UTF-8"?>
<svg width="60" height="60" viewBox="0 0 60 60" fill="none" xmlns="http://www.w3.org/2000/svg">
  <!-- Background circle -->
  <circle cx="30" cy="30" r="28" fill="#F38020" stroke="#E5731C" stroke-width="2"/>
  
  <!-- Cloudflare cloud shape -->
  <path d="M42 25.5C42 24.12 40.88 23 39.5 23C39.22 23 38.96 23.06 38.72 23.17C38.25 21.35 36.72 20 34.88 20C33.84 20 32.89 20.39 32.17 21.04C31.45 19.3 29.84 18 27.94 18C25.21 18 23 20.21 23 22.94C23 23.29 23.04 23.63 23.12 23.96C22.18 24.34 21.5 25.28 21.5 26.38C21.5 27.83 22.67 29 24.12 29H39.5C40.88 29 42 27.88 42 26.5V25.5Z" fill="white"/>
  
  <!-- Dashboard elements -->
  <!-- Stats bars -->
  <rect x="16" y="36" width="6" height="8" rx="1" fill="white" opacity="0.9"/>
  <rect x="24" y="33" width="6" height="11" rx="1" fill="white" opacity="0.9"/>
  <rect x="32" y="35" width="6" height="9" rx="1" fill="white" opacity="0.9"/>
  <rect x="40" y="31" width="6" height="13" rx="1" fill="white" opacity="0.9"/>
  
  <!-- Connection lines -->
  <line x1="19" y1="36" x2="27" y2="33" stroke="white" stroke-width="1.5" opacity="0.7"/>
  <line x1="27" y1="33" x2="35" y2="35" stroke="white" stroke-width="1.5" opacity="0.7"/>
  <line x1="35" y1="35" x2="43" y2="31" stroke="white" stroke-width="1.5" opacity="0.7"/>
  
  <!-- Small dots for data points -->
  <circle cx="19" cy="36" r="1.5" fill="white"/>
  <circle cx="27" cy="33" r="1.5" fill="white"/>
  <circle cx="35" cy="35" r="1.5" fill="white"/>
  <circle cx="43" cy="31" r="1.5" fill="white"/>
  
  <!-- Dashboard screen indicator -->
  <rect x="12" y="46" width="36" height="2" rx="1" fill="white" opacity="0.6"/>
</svg>
